<svg xmlns="http://www.w3.org/2000/svg" width="24" height="24" viewBox="0 0 100 100">
<defs><linearGradient id="tb" x1="0" y1="0" x2="0" y2="1"><stop offset="0%" stop-color="#1E4478"/><stop offset="100%" stop-color="#0E2240"/></linearGradient><linearGradient id="tr" x1="0" y1="0" x2="0" y2="1"><stop offset="0%" stop-color="#4A9BE0"/><stop offset="100%" stop-color="#1A4A8A"/></linearGradient></defs>
<rect x="2" y="2" width="96" height="96" rx="16" fill="url(#tr)"/><rect x="5" y="5" width="90" height="90" rx="13" fill="url(#tb)"/>
<rect x="22" y="22" width="44" height="44" rx="5" fill="#7EAED0" opacity=".25" stroke="#7EAED0" stroke-width="1" stroke-dasharray="4 2"/>
<rect x="30" y="30" width="28" height="28" rx="3" fill="#5BBEEE" opacity=".3" stroke="#5BBEEE" stroke-width="2"/>
<g stroke="#5BBEEE" stroke-width="1.8" stroke-linecap="round">
<line x1="44" y1="72" x2="44" y2="66"/><line x1="44" y1="22" x2="44" y2="28"/>
<line x1="72" y1="44" x2="66" y2="44"/><line x1="22" y1="44" x2="28" y2="44"/>
<path d="M44 72 L40 68 M44 72 L48 68"/><path d="M44 22 L40 26 M44 22 L48 26"/>
<path d="M72 44 L68 40 M72 44 L68 48"/><path d="M22 44 L26 40 M22 44 L26 48"/>
</g>
<text x="50" y="84" text-anchor="middle" font-size="9" fill="#5BBEEE" font-weight="600" font-family="Arial,sans-serif">E-</text>
</svg>