<svg xmlns="http://www.w3.org/2000/svg" width="16" height="16" viewBox="0 0 180 180">
  <defs>
    <linearGradient id="ring2" x1="0" y1="0" x2="0" y2="1">
      <stop offset="0%" stop-color="#5BBEEE"/>
      <stop offset="50%" stop-color="#2E7ED8"/>
      <stop offset="100%" stop-color="#1A4A8A"/>
    </linearGradient>
    <linearGradient id="bg2" x1="0" y1="0" x2="0" y2="1">
      <stop offset="0%" stop-color="#1B3A6B"/>
      <stop offset="100%" stop-color="#0D1F3C"/>
    </linearGradient>
    <radialGradient id="glow2" cx="50%" cy="30%" r="60%">
      <stop offset="0%" stop-color="#3B7DD8" stop-opacity=".2"/>
      <stop offset="100%" stop-color="#0D1F3C" stop-opacity="0"/>
    </radialGradient>
  </defs>
  <circle cx="90" cy="90" r="86" fill="url(#ring2)"/>
  <circle cx="90" cy="90" r="82" fill="none" stroke="#A0D8F8" stroke-width="1" opacity=".4"/>
  <circle cx="90" cy="90" r="74" fill="url(#bg2)"/>
  <circle cx="90" cy="90" r="74" fill="url(#glow2)"/>
  <g stroke="#fff" stroke-width="2.5" stroke-linecap="square" fill="none">
    <path d="M38 52 L38 38 L52 38"/>
    <path d="M128 38 L142 38 L142 52"/>
    <path d="M142 128 L142 142 L128 142"/>
    <path d="M52 142 L38 142 L38 128"/>
  </g>
  <circle cx="90" cy="90" r="42" fill="none" stroke="#4CB848" stroke-width="2.2"/>
  <g fill="none" stroke="#4CB848" stroke-width="5" stroke-linecap="round">
    <path d="M90 48 A42 42 0 0 1 122 62"/>
    <path d="M132 90 A42 42 0 0 1 118 122"/>
    <path d="M90 132 A42 42 0 0 1 58 118"/>
    <path d="M48 90 A42 42 0 0 1 62 58"/>
  </g>
  <polygon points="122,58 126,66 118,66" fill="#4CB848"/>
  <polygon points="122,122 118,114 126,114" fill="#4CB848"/>
  <polygon points="54,118 58,126 62,114" fill="#4CB848"/>
  <polygon points="58,58 62,66 54,62" fill="#4CB848"/>
  <line x1="90" y1="30" x2="90" y2="65" stroke="#4CB848" stroke-width="2" stroke-linecap="round"/>
  <line x1="90" y1="115" x2="90" y2="150" stroke="#4CB848" stroke-width="2" stroke-linecap="round"/>
  <line x1="30" y1="90" x2="65" y2="90" stroke="#4CB848" stroke-width="2" stroke-linecap="round"/>
  <line x1="115" y1="90" x2="150" y2="90" stroke="#4CB848" stroke-width="2" stroke-linecap="round"/>
  <circle cx="90" cy="90" r="18" fill="#0D1F3C" stroke="#4CB848" stroke-width="2"/>
  <text x="90" y="94" text-anchor="middle" font-size="14" fill="#fff" font-weight="700" font-family="Arial,sans-serif">OM</text>
  <circle cx="90" cy="90" r="28" fill="none" stroke="#4CB848" stroke-width="1" opacity=".5" stroke-dasharray="4 4"/>
</svg>