<svg xmlns="http://www.w3.org/2000/svg" width="32" height="32" viewBox="0 0 100 100">
<defs><linearGradient id="tb" x1="0" y1="0" x2="0" y2="1"><stop offset="0%" stop-color="#1E4478"/><stop offset="100%" stop-color="#0E2240"/></linearGradient><linearGradient id="tr" x1="0" y1="0" x2="0" y2="1"><stop offset="0%" stop-color="#4A9BE0"/><stop offset="100%" stop-color="#1A4A8A"/></linearGradient></defs>
<rect x="2" y="2" width="96" height="96" rx="16" fill="url(#tr)"/><rect x="5" y="5" width="90" height="90" rx="13" fill="url(#tb)"/>
<g stroke="#fff" stroke-linecap="round">
<line x1="20" y1="22" x2="20" y2="62" stroke-width="3"/><line x1="26" y1="22" x2="26" y2="62" stroke-width="1.5"/>
<line x1="31" y1="22" x2="31" y2="62" stroke-width="3.5"/><line x1="38" y1="22" x2="38" y2="62" stroke-width="1.5"/>
<line x1="42" y1="22" x2="42" y2="62" stroke-width="2"/><line x1="48" y1="22" x2="48" y2="62" stroke-width="3"/>
<line x1="54" y1="22" x2="54" y2="62" stroke-width="1.5"/><line x1="58" y1="22" x2="58" y2="62" stroke-width="2.5"/>
<line x1="64" y1="22" x2="64" y2="62" stroke-width="1.5"/><line x1="68" y1="22" x2="68" y2="62" stroke-width="3"/>
<line x1="74" y1="22" x2="74" y2="62" stroke-width="1.5"/><line x1="80" y1="22" x2="80" y2="62" stroke-width="2"/>
</g>
<line x1="16" y1="68" x2="84" y2="68" stroke="#4CB848" stroke-width="2"/>
<circle cx="16" cy="68" r="2.5" fill="#4CB848"/><circle cx="84" cy="68" r="2.5" fill="#4CB848"/>
<text x="50" y="80" text-anchor="middle" font-size="8" fill="#7EAED0" font-family="monospace">1234567890</text>
</svg>