<svg xmlns="http://www.w3.org/2000/svg" width="64" height="64" viewBox="0 0 100 100">
<defs><linearGradient id="tb" x1="0" y1="0" x2="0" y2="1"><stop offset="0%" stop-color="#1E4478"/><stop offset="100%" stop-color="#0E2240"/></linearGradient><linearGradient id="tr" x1="0" y1="0" x2="0" y2="1"><stop offset="0%" stop-color="#4A9BE0"/><stop offset="100%" stop-color="#1A4A8A"/></linearGradient></defs>
<rect x="2" y="2" width="96" height="96" rx="16" fill="url(#tr)"/><rect x="5" y="5" width="90" height="90" rx="13" fill="url(#tb)"/>
<g fill="none" stroke="#fff" stroke-width="2"><rect x="18" y="18" width="20" height="20" rx="3"/><rect x="62" y="18" width="20" height="20" rx="3"/><rect x="18" y="62" width="20" height="20" rx="3"/></g>
<g fill="#fff"><rect x="23" y="23" width="10" height="10" rx="2"/><rect x="67" y="23" width="10" height="10" rx="2"/><rect x="23" y="67" width="10" height="10" rx="2"/></g>
<g fill="#4CB848"><rect x="44" y="18" width="5" height="5" rx="1"/><rect x="44" y="44" width="5" height="5" rx="1"/><rect x="52" y="44" width="5" height="5" rx="1"/>
<rect x="62" y="44" width="5" height="5" rx="1"/><rect x="72" y="44" width="5" height="5" rx="1"/><rect x="44" y="62" width="5" height="5" rx="1"/>
<rect x="62" y="62" width="10" height="5" rx="1"/><rect x="62" y="72" width="5" height="10" rx="1"/><rect x="76" y="76" width="5" height="5" rx="1"/></g>
</svg>