<svg xmlns="http://www.w3.org/2000/svg" width="128" height="128" viewBox="0 0 100 100">
<defs><linearGradient id="tb" x1="0" y1="0" x2="0" y2="1"><stop offset="0%" stop-color="#1E4478"/><stop offset="100%" stop-color="#0E2240"/></linearGradient><linearGradient id="tr" x1="0" y1="0" x2="0" y2="1"><stop offset="0%" stop-color="#4A9BE0"/><stop offset="100%" stop-color="#1A4A8A"/></linearGradient></defs>
<rect x="2" y="2" width="96" height="96" rx="16" fill="url(#tr)"/><rect x="5" y="5" width="90" height="90" rx="13" fill="url(#tb)"/>
<rect x="34" y="20" width="32" height="60" rx="5" fill="#1A3660" stroke="#7EAED0" stroke-width="1.5"/>
<text x="50" y="38" text-anchor="middle" font-size="8" fill="#7EAED0" font-weight="600" font-family="Arial,sans-serif">I/O</text>
<g fill="none" stroke-width="1.5" stroke-linecap="round">
<line x1="16" y1="36" x2="34" y2="36" stroke="#4CB848"/><circle cx="16" cy="36" r="3" fill="#4CB848"/>
<line x1="16" y1="50" x2="34" y2="50" stroke="#4CB848"/><circle cx="16" cy="50" r="3" fill="#4CB848"/>
<line x1="16" y1="64" x2="34" y2="64" stroke="#5BBEEE"/><circle cx="16" cy="64" r="3" fill="#5BBEEE"/>
<line x1="66" y1="36" x2="84" y2="36" stroke="#5BBEEE"/><circle cx="84" cy="36" r="3" fill="#5BBEEE"/>
<line x1="66" y1="50" x2="84" y2="50" stroke="#5BBEEE"/><circle cx="84" cy="50" r="3" fill="#5BBEEE"/>
<line x1="66" y1="64" x2="84" y2="64" stroke="#4CB848"/><circle cx="84" cy="64" r="3" fill="#4CB848"/>
</g>
</svg>