<svg xmlns="http://www.w3.org/2000/svg" width="32" height="32" viewBox="0 0 100 100">
<defs><linearGradient id="tb" x1="0" y1="0" x2="0" y2="1"><stop offset="0%" stop-color="#1E4478"/><stop offset="100%" stop-color="#0E2240"/></linearGradient><linearGradient id="tr" x1="0" y1="0" x2="0" y2="1"><stop offset="0%" stop-color="#4A9BE0"/><stop offset="100%" stop-color="#1A4A8A"/></linearGradient></defs>
<rect x="2" y="2" width="96" height="96" rx="16" fill="url(#tr)"/><rect x="5" y="5" width="90" height="90" rx="13" fill="url(#tb)"/>
<g stroke="#5BBEEE" stroke-width="0.6" opacity=".5">
<line x1="22" y1="18" x2="22" y2="68"/><line x1="38" y1="18" x2="38" y2="68"/><line x1="54" y1="18" x2="54" y2="68"/><line x1="70" y1="18" x2="70" y2="68"/>
<line x1="22" y1="18" x2="70" y2="18"/><line x1="22" y1="34" x2="70" y2="34"/><line x1="22" y1="52" x2="70" y2="52"/><line x1="22" y1="68" x2="70" y2="68"/>
</g>
<g font-size="9" fill="#7EAED0" text-anchor="middle" font-family="monospace">
<text x="30" y="30">1</text><text x="46" y="30">2</text><text x="62" y="30">1</text>
<text x="30" y="46">2</text><text x="62" y="46">2</text>
<text x="30" y="62">1</text><text x="46" y="62">2</text><text x="62" y="62">1</text>
</g>
<text x="46" y="48" text-anchor="middle" font-size="12" fill="#4CB848" font-weight="700" font-family="monospace">4</text>
</svg>