<svg xmlns="http://www.w3.org/2000/svg" width="64" height="64" viewBox="0 0 100 100">
<defs><linearGradient id="tb" x1="0" y1="0" x2="0" y2="1"><stop offset="0%" stop-color="#1E4478"/><stop offset="100%" stop-color="#0E2240"/></linearGradient><linearGradient id="tr" x1="0" y1="0" x2="0" y2="1"><stop offset="0%" stop-color="#4A9BE0"/><stop offset="100%" stop-color="#1A4A8A"/></linearGradient></defs>
<rect x="2" y="2" width="96" height="96" rx="16" fill="url(#tr)"/><rect x="5" y="5" width="90" height="90" rx="13" fill="url(#tb)"/>
<rect x="14" y="28" width="30" height="24" rx="4" fill="none" stroke="#7EAED0" stroke-width="1.5"/>
<circle cx="29" cy="40" r="7" fill="none" stroke="#7EAED0" stroke-width="1.2"/><circle cx="29" cy="40" r="3" fill="#7EAED0"/>
<rect x="56" y="28" width="30" height="24" rx="4" fill="none" stroke="#7EAED0" stroke-width="1.5"/>
<circle cx="71" cy="40" r="7" fill="none" stroke="#7EAED0" stroke-width="1.2"/><circle cx="71" cy="40" r="3" fill="#7EAED0"/>
<rect x="14" y="60" width="30" height="24" rx="4" fill="none" stroke="#5BBEEE" stroke-width="1.5"/>
<circle cx="29" cy="72" r="7" fill="none" stroke="#5BBEEE" stroke-width="1.2"/><circle cx="29" cy="72" r="3" fill="#5BBEEE"/>
<rect x="56" y="60" width="30" height="24" rx="4" fill="none" stroke="#5BBEEE" stroke-width="1.5"/>
<circle cx="71" cy="72" r="7" fill="none" stroke="#5BBEEE" stroke-width="1.2"/><circle cx="71" cy="72" r="3" fill="#5BBEEE"/>
<circle cx="50" cy="50" r="8" fill="#4CB848"/>
<text x="50" y="54" text-anchor="middle" font-size="9" fill="#fff" font-weight="700" font-family="Arial,sans-serif">4</text>
</svg>