<svg xmlns="http://www.w3.org/2000/svg" width="64" height="64" viewBox="0 0 100 100">
<defs><linearGradient id="tb" x1="0" y1="0" x2="0" y2="1"><stop offset="0%" stop-color="#1E4478"/><stop offset="100%" stop-color="#0E2240"/></linearGradient><linearGradient id="tr" x1="0" y1="0" x2="0" y2="1"><stop offset="0%" stop-color="#4A9BE0"/><stop offset="100%" stop-color="#1A4A8A"/></linearGradient></defs>
<rect x="2" y="2" width="96" height="96" rx="16" fill="url(#tr)"/><rect x="5" y="5" width="90" height="90" rx="13" fill="url(#tb)"/>
<g stroke="#7EAED0" stroke-width="0.6" opacity=".4">
<line x1="20" y1="20" x2="20" y2="80"/><line x1="35" y1="20" x2="35" y2="80"/><line x1="50" y1="20" x2="50" y2="80"/><line x1="65" y1="20" x2="65" y2="80"/><line x1="80" y1="20" x2="80" y2="80"/>
<line x1="20" y1="20" x2="80" y2="20"/><line x1="20" y1="35" x2="80" y2="35"/><line x1="20" y1="50" x2="80" y2="50"/><line x1="20" y1="65" x2="80" y2="65"/><line x1="20" y1="80" x2="80" y2="80"/>
</g>
<g fill="#E8593C"><circle cx="35" cy="35" r="3.5"/><circle cx="65" cy="35" r="3.5"/><circle cx="35" cy="65" r="3.5"/><circle cx="65" cy="65" r="3.5"/><circle cx="50" cy="50" r="3.5"/></g>
</svg>