<svg xmlns="http://www.w3.org/2000/svg" width="256" height="256" viewBox="0 0 100 100">
<defs><linearGradient id="tb" x1="0" y1="0" x2="0" y2="1"><stop offset="0%" stop-color="#1E4478"/><stop offset="100%" stop-color="#0E2240"/></linearGradient><linearGradient id="tr" x1="0" y1="0" x2="0" y2="1"><stop offset="0%" stop-color="#4A9BE0"/><stop offset="100%" stop-color="#1A4A8A"/></linearGradient></defs>
<rect x="2" y="2" width="96" height="96" rx="16" fill="url(#tr)"/><rect x="5" y="5" width="90" height="90" rx="13" fill="url(#tb)"/>
<circle cx="26" cy="30" r="4" fill="none" stroke="#4CB848" stroke-width="1.5"/><circle cx="26" cy="30" r="1.5" fill="#4CB848"/>
<circle cx="38" cy="50" r="4" fill="none" stroke="#4CB848" stroke-width="1.5"/><circle cx="38" cy="50" r="1.5" fill="#4CB848"/>
<circle cx="22" cy="65" r="4" fill="none" stroke="#4CB848" stroke-width="1.5"/><circle cx="22" cy="65" r="1.5" fill="#4CB848"/>
<circle cx="72" cy="35" r="4" fill="none" stroke="#5BBEEE" stroke-width="1.5"/><circle cx="72" cy="35" r="1.5" fill="#5BBEEE"/>
<circle cx="65" cy="55" r="4" fill="none" stroke="#5BBEEE" stroke-width="1.5"/><circle cx="65" cy="55" r="1.5" fill="#5BBEEE"/>
<circle cx="76" cy="70" r="4" fill="none" stroke="#5BBEEE" stroke-width="1.5"/><circle cx="76" cy="70" r="1.5" fill="#5BBEEE"/>
<line x1="30" y1="30" x2="68" y2="35" stroke="#4CB848" stroke-width="1" opacity=".7"/>
<line x1="42" y1="50" x2="61" y2="55" stroke="#4CB848" stroke-width="1" opacity=".7"/>
<line x1="26" y1="65" x2="72" y2="70" stroke="#4CB848" stroke-width="1" opacity=".7"/>
</svg>